<?xml version="1.0" encoding="UTF-8" standalone="no"?>
<svg width="188px" height="79px" viewBox="0 0 188 79" version="1.1" xmlns="http://www.w3.org/2000/svg" xmlns:xlink="http://www.w3.org/1999/xlink">
    <!-- Generator: Sketch 3.6.1 (26313) - http://www.bohemiancoding.com/sketch -->
    <title>epakag_logo</title>
    <desc>Created with Sketch.</desc>
    <defs></defs>
    <g id="Page-1" stroke="none" stroke-width="1" fill="none" fill-rule="evenodd">
        <g id="epakag_logo" transform="translate(0.000000, -6.000000)">
            <g id="Page-1" transform="translate(15.000000, 58.000000)" fill="#004B85">
                <path d="M138,24.689969 L140.467892,17.999224 L140.893052,18.3797968 C142.405228,19.6462331 144.457785,20.7237585 146.393334,20.7668595 C148.126128,20.8072094 148.971089,20.3340152 148.740645,18.8291479 C148.570938,17.7057703 147.333866,17.5076891 146.562147,17.3517918 L144.868654,17.0051495 C141.575451,16.37239 138.80298,14.2842833 138.80298,10.3318284 C138.80298,4.35087472 143.821832,1 148.870158,1 C151.521155,1 153.955998,1.69328442 156.232747,3.21374153 L154.094443,9.1442579 C152.919895,8.27581828 151.14512,7.05431716 148.897847,6.97086625 C148.159176,6.94152088 146.463896,7.34043454 147.006958,9.10390801 C147.241867,9.85496614 148.290476,10.1704289 148.934468,10.3318284 L150.847687,10.8050226 C154.415993,11.6597065 157,13.7450621 157,18.0157308 C157,24.0251129 151.949887,27 146.936395,27 C144.007616,27 140.619735,26.1434819 138,24.689969 L138,24.689969 Z" id="Fill-1"></path>
                <path d="M127,26 L136,26 L136,1 L127,1 L127,26 Z" id="Fill-3"></path>
                <path d="M117.880521,1 L127,1 L117.684344,26 L110.285119,26 L101,1 L110.088017,1 L113.985657,16.0862069 L117.880521,1 Z" id="Fill-5"></path>
                <path d="M91.9283362,8.21547303 L91.9283362,8.21547303 C92.0869882,9.28028953 93.6383525,16.9304187 93.6383525,16.9304187 L90.2291371,16.9304187 L91.9283362,8.21547303 Z M79,26 L88.012516,26 L88.6985057,22.8601098 L95.1275179,22.8601098 L95.9820754,26 L105,26 L96.5598932,1 L87.1047741,1 L79,26 Z" id="Fill-6"></path>
                <path d="M57,1 L65.9340192,1 C73.9080052,1 80,4.6719773 80,13.8619235 C80,21.2640768 75.0357495,26 68.0616846,26 L57,25.9863597 L57,1 Z M65.7808127,18.8224574 L66.366442,18.8224574 C69.241102,18.8224574 71.3723937,17.0910447 71.3723937,13.8282773 C71.3723937,10.3163466 69.4840566,8.35668558 66.3265539,8.35668558 L65.7808127,8.35668558 L65.7808127,18.8224574 Z" id="Fill-7"></path>
                <path d="M51.6580784,1.43762751 L52.1308352,5.53044917 C52.2412065,6.50195005 52.8040999,8.83228223 52.1078412,8.52024087 C51.674634,8.3279363 51.3159275,7.2711683 50.9618197,6.33232291 C50.7806269,5.85518989 49.9188113,3.60286805 49.69347,3.43777639 C48.6035539,2.63408845 45.8865815,1.72789855 44.0489001,1.71973468 C38.4733123,1.69887145 34.7859926,5.75450212 34.7859926,12.9523168 C34.7859926,18.1146058 37.2923399,24.3064499 43.6671995,24.3064499 C45.950045,24.3064499 50.3253455,23.5980072 51.5145957,20.3923264 C52.0535753,18.9418783 52.546567,17.6519863 52.9025142,18.0447593 C53.168325,18.3295878 52.8234148,19.491579 52.6642963,20.117476 C51.9119322,23.0873115 51.8723825,23.988966 51.6350843,24.1032602 C48.7553144,25.5319379 45.0606366,26 41.8276786,26 C31.5493556,26 28,20.0857276 28,14.1723623 C28,3.91128103 34.3914154,-0.411943263 44.2972355,0.030720072 C46.8035827,0.123243966 49.3117694,0.563186009 51.6580784,1.43762751" id="Fill-8"></path>
                <path d="M21.9294348,2.27208526 L20.2816679,1.7149882 C19.7302643,1.23199218 20.4040997,1.09718184 20.4040997,1.09718184 C20.4040997,1.09718184 22.7846166,1.52571804 28.715657,1.03825811 C28.715657,1.03825811 29.230239,1.13735711 28.8749105,1.54268093 L26.9288885,2.35065023 C25.6613047,2.88721327 25.6613047,2.58009566 25.6613047,3.92730635 L25.6502582,16.4360996 C25.6502582,26.2183312 15.3899174,25.9995992 13.3932657,25.9995992 C12.4386655,25.9995992 3.02890379,25.9995992 3.02890379,18.1457805 L3.02890379,4.90490457 C3.02890379,2.59616577 3.28389342,2.65687506 2.4931494,2.38725437 L0.113553031,1.52036134 C0.113553031,1.52036134 -0.291484649,0.965942625 0.428377774,1.00165398 C2.37439972,1.09718184 5.1894116,1.50161288 11.8136187,1.03825811 C11.8136187,1.03825811 12.3898769,1.17396124 12.0106143,1.57839228 L10.0296119,2.11852646 C8.5226876,2.77382974 8.72152427,2.27208526 8.68102051,3.77374754 L8.72980914,16.83071 C8.72980914,20.0313398 10.4282058,23.9952997 15.771021,23.9952997 C23.0423679,23.9952997 23.1104879,17.8940155 23.1104879,16.5378769 L23.124296,3.60411863 C23.2016213,2.38725437 23.0423679,2.73365447 21.9294348,2.27208526" id="Fill-9"></path>
            </g>
            <path d="M0,51.6899996 L187.3628,51.6899996 L187.3628,43 L0,43 L0,51.6899996 Z" id="Fill-10" fill="#BB9107"></path>
            <text id="e-Pak-Ag" font-family="BerkeleyUCDavis-Black, Berkeley UC Davis" font-size="45" font-weight="700" fill="#000000">
                <tspan x="5.15869141" y="38">e-Pak Ag</tspan>
            </text>
        </g>
    </g>
</svg>