<?xml version="1.0" encoding="UTF-8" standalone="no"?>
<svg width="77px" height="66px" viewBox="0 0 77 66" version="1.1" xmlns="http://www.w3.org/2000/svg" xmlns:xlink="http://www.w3.org/1999/xlink">
    <!-- Generator: Sketch 3.6.1 (26313) - http://www.bohemiancoding.com/sketch -->
    <title>livestock</title>
    <desc>Created with Sketch.</desc>
    <defs></defs>
    <g id="Page-1" stroke="none" stroke-width="1" fill="none" fill-rule="evenodd">
        <g id="livestock" transform="translate(4.000000, 4.000000)">
            <path d="M59.8935624,37.2253479 C61.0703568,33.4566487 67.3415527,35.6040039 68.1018976,31.4239268 C68.1018976,31.4239268 70.3089009,20.783784 61.4808878,17.8278065 C52.652418,14.8722878 51.59207,33.1232126 39.5574405,33.1232126 C27.5223544,33.1232126 20.6803246,13.87519 20.6803246,13.87519 C20.6803246,13.87519 25.2473098,7.11382159 22.5617343,4.3798291 C19.8766155,1.64629527 16.8234345,4.89764113 16.8234345,4.89764113 C16.8234345,4.89764113 16.2352656,-0.367163377 13.1450957,0.0203930139 C10.0553824,0.408408051 10.0672554,3.04837798 9.19093857,5.64523512 C9.19093857,5.64523512 5.438622,3.01260354 3.81065455,4.70317497 C2.0383848,6.54418249 3.01105539,10.9375584 6.48709697,12.3786261 C6.48709697,12.3786261 -0.520697838,16.5720321 0.030938819,18.419002 C0.583032128,20.2664306 9.13522692,20.7466336 9.13522692,20.7466336 C9.13522692,20.7466336 8.5338151,34.3124832 11.4531968,44.7242201 C13.3231903,51.3920246 17.7276072,56.1628667 22.681834,57.3310396 L54.6475343,57.3310396 C61.9306908,50.9769494 58.7163113,40.9935885 59.8935624,37.2253479 Z" id="Page-1" stroke="#BA0C2F" stroke-width="4" stroke-linecap="round" stroke-linejoin="round"></path>
            <circle id="Oval-1" fill="#BA0C2F" cx="14.5" cy="12.5" r="2.5"></circle>
        </g>
    </g>
</svg>