<?xml version="1.0" encoding="UTF-8" standalone="no"?>
<svg width="41px" height="72px" viewBox="0 0 41 72" version="1.1" xmlns="http://www.w3.org/2000/svg" xmlns:xlink="http://www.w3.org/1999/xlink">
    <!-- Generator: Sketch 3.6.1 (26313) - http://www.bohemiancoding.com/sketch -->
    <title>cereal</title>
    <desc>Created with Sketch.</desc>
    <defs></defs>
    <g id="Page-1" stroke="none" stroke-width="1" fill="none" fill-rule="evenodd">
        <path d="M18.2413205,52.0189203 C11.0594872,51.0265707 5.36101282,45.3703865 4.36124359,38.2418519 C11.5430769,39.2342015 17.2415513,44.8903857 18.2413205,52.0189203 M18.2413205,36.3667181 C11.0594872,35.3743684 5.36101282,29.7181843 4.36124359,22.5896496 C11.5430769,23.5819992 17.2415513,29.2381834 18.2413205,36.3667181 M20.4989487,5.25587909 C24.8712308,10.9986721 24.8712308,18.9995562 20.4989487,24.7428709 C18.3674744,21.9510398 17.2136923,18.5628597 17.2136923,14.999375 C17.2136923,11.4358903 18.3674744,8.04771023 20.4989487,5.25587909 M36.6387564,22.5896496 C35.6389872,29.7181843 29.9405128,35.3743684 22.7586795,36.3667181 C23.7584487,29.2381834 29.4569231,23.5819992 36.6387564,22.5896496 M22.7586795,52.0189203 C23.7584487,44.8903857 29.4569231,39.2342015 36.6387564,38.2418519 C35.6389872,45.3703865 29.9405128,51.0265707 22.7586795,52.0189203 M20.5,40.6955955 C20.5036795,40.6950737 20.5068333,40.6950737 20.5105128,40.6955955 C20.5115641,40.6955955 20.5126154,40.6950737 20.5141923,40.6950737 C21.6669231,40.694552 22.7965256,40.5943779 23.8977436,40.4107254 C22.5400128,41.8585541 21.3920128,43.5009918 20.5015769,45.2926473 C19.6116667,43.5009918 18.4620897,41.8590758 17.104359,40.4112471 C18.2097821,40.5948996 19.3430641,40.6955955 20.5,40.6955955 M0,35.9999348 C0,43.6455139 4.27241026,50.3170042 10.5701154,53.7933583 C10.5354231,53.9441412 10.5128205,54.0996197 10.5128205,54.2608374 L10.5128205,64.6956389 C10.5128205,65.8481628 11.4542436,66.7825992 12.6153846,66.7825992 C13.7765256,66.7825992 14.7179487,65.8481628 14.7179487,64.6956389 L14.7179487,55.518231 C15.9043205,55.8651882 17.1332692,56.1130147 18.3974359,56.2413628 L18.3974359,69.9130397 C18.3974359,71.0655635 19.338859,72 20.5,72 C21.661141,72 22.6025641,71.0655635 22.6025641,69.9130397 L22.6025641,56.2413628 C23.8667308,56.1130147 25.0956795,55.8651882 26.2820513,55.518231 L26.2820513,64.6956389 C26.2820513,65.8481628 27.2234744,66.7825992 28.3846154,66.7825992 C29.5457564,66.7825992 30.4871795,65.8481628 30.4871795,64.6956389 L30.4871795,54.2608374 C30.4871795,54.0996197 30.4645769,53.9441412 30.429359,53.7933583 C36.7275897,50.3170042 41,43.6455139 41,35.9999348 C41,34.847411 40.0585769,33.9129745 38.8974359,33.9129745 C37.7394487,33.9129745 36.605641,34.0136703 35.4996923,34.1973228 C38.9084744,30.5623597 41,25.6940031 41,20.3477325 C41,19.1952087 40.0585769,18.2607722 38.8974359,18.2607722 C34.2896667,18.2607722 30.0330256,19.7779924 26.6058462,22.3345187 C29.4295897,15.0531142 27.8936667,6.47414216 21.9865128,0.610827194 C21.1654615,-0.203609065 19.8345385,-0.203609065 19.0129615,0.610827194 C15.1410897,4.45448633 13.0085641,9.56440863 13.0085641,14.999375 C13.0090897,17.5454666 13.4826923,20.0179928 14.377859,22.3246057 C10.9538333,19.7748619 6.7035,18.2607722 2.1025641,18.2607722 C0.941423077,18.2607722 0,19.1952087 0,20.3477325 C0,25.6940031 2.091,30.5623597 5.50083333,34.1978446 C4.39435897,34.0136703 3.26055128,33.9129745 2.1025641,33.9129745 C0.941423077,33.9129745 0,34.847411 0,35.9999348" id="cereal" fill="#FFCD00"></path>
    </g>
</svg>