<?xml version="1.0" encoding="UTF-8" standalone="no"?>
<svg width="73px" height="52px" viewBox="0 0 73 52" version="1.1" xmlns="http://www.w3.org/2000/svg" xmlns:xlink="http://www.w3.org/1999/xlink">
    <!-- Generator: Sketch 3.6.1 (26313) - http://www.bohemiancoding.com/sketch -->
    <title>treecrops</title>
    <desc>Created with Sketch.</desc>
    <defs></defs>
    <g id="Page-1" stroke="none" stroke-width="1" fill="none" fill-rule="evenodd">
        <path d="M62.1781328,21.4685714 C62.6700359,21.9620408 62.9503677,22.6465306 62.9503677,23.3469388 C62.9503677,24.0473469 62.6700359,24.7265306 62.1781328,25.22 C61.6809405,25.7187755 61.0033837,26 60.3057276,26 C59.6075427,26 58.9252255,25.7187755 58.4333225,25.22 C57.9414194,24.7265306 57.6610876,24.0473469 57.6610876,23.3469388 C57.6610876,22.6465306 57.9414194,21.9620408 58.4333225,21.4685714 C58.9299859,20.975102 59.6075427,20.6938776 60.3057276,20.6938776 C61.0033837,20.6938776 61.6809405,20.975102 62.1781328,21.4685714 L62.1781328,21.4685714 Z M51.5942832,26.7746939 C52.0914756,27.2734694 52.3718074,27.9526531 52.3718074,28.6530612 C52.3718074,29.3534694 52.0914756,30.0326531 51.5942832,30.5314286 C51.1023802,31.024898 50.4248234,31.3061224 49.7271673,31.3061224 C49.0289824,31.3061224 48.3466652,31.024898 47.8547622,30.5314286 C47.3628591,30.0379592 47.0825273,29.3534694 47.0825273,28.6530612 C47.0825273,27.9526531 47.3628591,27.2681633 47.8547622,26.7746939 C48.3466652,26.2812245 49.0289824,26 49.7271673,26 C50.4248234,26 51.1023802,26.2812245 51.5942832,26.7746939 L51.5942832,26.7746939 Z M51.5942832,16.162449 C52.0914756,16.6612245 52.3718074,17.3404082 52.3718074,18.0408163 C52.3718074,18.7412245 52.0914756,19.4204082 51.5942832,19.9191837 C51.1023802,20.4126531 50.4248234,20.6938776 49.7271673,20.6938776 C49.0289824,20.6938776 48.3466652,20.4126531 47.8547622,19.9191837 C47.3628591,19.4257143 47.0825273,18.7412245 47.0825273,18.0408163 C47.0825273,17.3404082 47.3628591,16.6559184 47.8547622,16.162449 C48.3466652,15.6689796 49.0289824,15.3877551 49.7271673,15.3877551 C50.4248234,15.3877551 51.1023802,15.6689796 51.5942832,16.162449 L51.5942832,16.162449 Z M47.0825273,47.755102 C44.8943521,47.755102 42.7670036,47.4362041 40.721639,46.8037143 C40.7755896,46.7623265 40.8263667,46.7156327 40.8797884,46.6737143 C41.2087817,46.4174286 41.5324856,46.1521224 41.8498424,45.8783265 C41.9540412,45.7886531 42.05824,45.7000408 42.1603232,45.6093061 C42.5448538,45.2675918 42.9230374,44.9168571 43.2890555,44.5502041 C43.5767924,44.261551 43.7698511,43.8970204 43.8555374,43.5043673 C43.858711,43.491102 43.8650581,43.4783673 43.8677028,43.465102 C43.8840996,43.3828571 43.8862153,43.2979592 43.8930913,43.2135918 C43.8967938,43.1584082 43.9089592,43.1048163 43.9089592,43.049102 L43.9089592,43.0485714 C43.9089592,42.4861224 43.6857515,41.9459592 43.2890555,41.548 L25.5181321,23.7252653 C26.6569141,12.7277959 35.9538818,4.24489796 47.0825273,4.24489796 C59.0400029,4.24489796 68.7685759,14.004449 68.7685759,26 C68.7685759,37.995551 59.0400029,47.755102 47.0825273,47.755102 L47.0825273,47.755102 Z M25.3583958,47.755102 C19.7147339,47.7545714 14.409057,45.5504082 10.419353,41.5490612 C6.42912002,37.5471837 4.23142412,32.2262041 4.23142412,26.5661633 C4.23142412,21.6203265 5.91024164,16.9323673 8.99706554,13.1575918 L21.8336195,26.0318367 L21.8336195,26.0323673 L38.7106546,42.9583673 L38.7270514,42.9748163 C38.4599428,43.1944898 38.1875448,43.4062041 37.9109155,43.611551 C37.8728327,43.6402041 37.8342209,43.6667347 37.7956092,43.6948571 C37.5549469,43.8710204 37.3111111,44.0429388 37.0635728,44.2084898 C37.018085,44.2392653 36.9720683,44.2689796 36.9260515,44.2986939 C36.6721661,44.4658367 36.415636,44.6276735 36.1554034,44.7831429 C36.1263124,44.8011837 36.0972213,44.8181633 36.0681303,44.8356735 C35.7751042,45.0081224 35.4783755,45.1752653 35.1779444,45.3339184 C35.173713,45.3355102 35.1705394,45.3381633 35.1668369,45.3402857 C32.1768069,46.9162041 28.8334529,47.755102 25.3599826,47.755102 L25.3583958,47.755102 Z M47.0825273,0 C34.8949679,0 24.5528385,8.51632653 21.8584792,20.0550204 L10.419353,8.58159184 C9.59263848,7.75277551 8.25339275,7.75330612 7.42720719,8.58159184 C2.63776401,13.3857551 0,19.7727347 0,26.5661633 C0,33.3601224 2.63776401,39.747102 7.42720719,44.5512653 C12.2166504,49.3538367 18.5849437,51.9994694 25.3578669,52 L25.3599826,52 C29.1656197,52 32.8437851,51.1642857 36.1855523,49.5793469 C39.611419,51.1802041 43.2694852,52 47.0825273,52 C61.3736333,52 73,40.3366122 73,26 C73,11.6633878 61.3736333,0 47.0825273,0 L47.0825273,0 Z" id="treecrops" fill="#ED8800"></path>
    </g>
</svg>