<?xml version="1.0" encoding="UTF-8" standalone="no"?>
<svg width="62px" height="62px" viewBox="0 0 62 62" version="1.1" xmlns="http://www.w3.org/2000/svg" xmlns:xlink="http://www.w3.org/1999/xlink">
    <!-- Generator: Sketch 3.6.1 (26313) - http://www.bohemiancoding.com/sketch -->
    <title>vegetables</title>
    <desc>Created with Sketch.</desc>
    <defs></defs>
    <g id="Page-1" stroke="none" stroke-width="1" fill="none" fill-rule="evenodd">
        <path d="M5.03986441,16.264495 C5.59628814,14.9224704 6.40228814,13.7181163 7.43579661,12.6855875 C8.46825424,11.6525334 9.67252542,10.8464779 11.0144576,10.2900158 C12.0232712,9.87122426 13.0893559,9.60691793 14.1827627,9.50340232 C15.9797119,9.33315331 17.7982034,9.60166333 19.4606441,10.2905413 C20.5340847,10.7356058 21.7625254,10.2259097 22.2065085,9.15344603 C22.6510169,8.08098235 22.1418814,6.85140616 21.0694915,6.40739254 C20.225661,6.05743624 19.357661,5.78997715 18.4728475,5.59870974 C18.9220847,5.30024851 19.3986441,5.04434954 19.9014746,4.83574195 C21.9380169,3.99132788 24.2945424,3.99027696 26.3358136,4.83626741 C27.3588136,5.26083902 28.2767288,5.87510165 29.0632881,6.66171514 C29.5892373,7.18770051 30.3237797,7.37213693 31.0005254,7.22395724 C31.6762203,7.37213693 32.4107627,7.18717505 32.9367119,6.66171514 C33.724322,5.87457619 34.6417119,5.26031356 35.6641864,4.83574195 C37.7007288,3.99132788 40.0572542,3.99027696 42.0985254,4.83626741 C42.6008305,5.044875 43.0773898,5.30024851 43.5261017,5.59818428 C42.6407627,5.78997715 41.7732881,6.05691078 40.9294576,6.40686708 C39.8575932,6.85140616 39.3484576,8.08150781 39.7934915,9.15344603 C40.2374746,10.2259097 41.4669661,10.7350804 42.5398814,10.2900158 C43.8776102,9.73513014 45.2983559,9.45400909 46.7627119,9.45400909 C47.1341864,9.45400909 47.5077627,9.47240019 47.8729322,9.50865692 C48.945322,9.61585075 49.9924915,9.87910616 50.9850169,10.2905413 C52.3285254,10.8475288 53.5327966,11.6535843 54.5642034,12.6850621 C55.5977119,13.7191672 56.4037119,14.9235213 56.9601356,16.264495 C57.5149831,17.6038923 57.7966102,19.0247359 57.7966102,20.4886672 C57.7966102,21.952073 57.5149831,23.3729166 56.9596102,24.7123139 C56.4037119,26.0532876 55.5982373,27.2576417 54.5652542,28.2906959 C53.5322712,29.3242756 52.328,30.1303311 50.9855424,30.6867931 C48.3106102,31.7955135 45.2200678,31.7970899 42.5404068,30.6867931 C41.7238983,30.3478715 40.9178983,29.8812631 40.1444746,29.2995789 C39.3957458,28.7357605 38.3648644,28.7362859 37.6171864,29.3001044 C36.8448136,29.8817885 36.039339,30.3483969 35.2228305,30.6867931 C32.5484237,31.7955135 29.4573559,31.7970899 26.7776949,30.6867931 C25.9611864,30.3478715 25.1551864,29.8812631 24.3817627,29.2995789 C23.6330339,28.7357605 22.6021525,28.7362859 21.8544746,29.3001044 C21.0821017,29.8817885 20.2766271,30.3483969 19.4601186,30.6867931 C16.7857119,31.7955135 13.6946441,31.7976153 11.0144576,30.6862676 C9.67147458,30.1292801 8.46720339,29.3232246 7.43422034,28.2906959 C6.40228814,27.2586927 5.59681356,26.054864 5.03986441,24.7123139 C4.48501695,23.3739675 4.20391525,21.953124 4.20338983,20.4886672 C4.20338983,19.0247359 4.48449153,17.6038923 5.03986441,16.264495 L5.03986441,16.264495 Z M31,35.9067118 L30.8155763,35.7222754 C30.8770508,35.7233263 30.938,35.7270045 31,35.7270045 C31.0614746,35.7270045 31.1229492,35.7233263 31.1844237,35.7222754 L31,35.9067118 Z M37.0013898,48.4489144 C36.855322,48.7405447 36.779661,49.0621261 36.779661,49.3889622 L36.779661,57.7963207 L25.220339,57.7963207 L25.220339,49.3889622 C25.220339,49.0621261 25.1441525,48.7405447 24.9980847,48.4489144 L18.4644407,35.3807265 C19.3529322,35.1889336 20.2235593,34.920949 21.0705424,34.5699418 C21.6674237,34.3224502 22.2537966,34.0197853 22.8307119,33.68244 L29.5135763,40.3657646 C29.9239322,40.7761488 30.4619661,40.9816036 31,40.9816036 C31.5380339,40.9816036 32.0755424,40.7761488 32.4858983,40.3657646 L39.1698136,33.6819146 C39.7462034,34.0192598 40.3331017,34.3219247 40.9299831,34.5694164 C41.7769661,34.9204236 42.6475932,35.1884081 43.5350339,35.380201 L37.0013898,48.4489144 Z M4.46242373,31.2632226 C5.88684746,32.6877444 7.54928814,33.8001431 9.40455932,34.5694164 C10.8478983,35.1679152 12.3579661,35.5325844 13.9079661,35.6665767 L21.0169492,49.8849963 L21.0169492,59.8981604 C21.0169492,61.0589013 21.9579831,62 23.1186441,62 L38.8813559,62 C40.0420169,62 40.9830508,61.0589013 40.9830508,59.8981604 L40.9830508,49.8849963 L48.0915085,35.6665767 C49.6430847,35.5331098 51.153678,35.1679152 52.5954407,34.5699418 C54.4501864,33.801194 56.1126271,32.6882699 57.5375763,31.2626972 C58.9625254,29.8376499 60.074322,28.1750947 60.8424915,26.3223231 C61.610661,24.4700769 62,22.5074842 62,20.4886672 C62,18.4698502 61.610661,16.5072575 60.8430169,14.6550113 C60.074322,12.8017142 58.962,11.139159 57.5370508,9.71358629 C56.113678,8.28958993 54.4512373,7.17719131 52.5949153,6.40739254 C51.5246271,5.96337892 50.4081017,5.64862843 49.2663559,5.45998832 C48.8313051,4.82838551 48.3421356,4.2335649 47.798322,3.68918843 C46.6197966,2.51058185 45.2437119,1.58997609 43.7084237,0.953118684 C40.6399492,-0.318494296 37.1169831,-0.316917916 34.0537627,0.953118684 C32.9472203,1.41184518 31.9268475,2.02400598 31,2.76858267 C30.0731525,2.02400598 29.0527797,1.41237064 27.9457119,0.953118684 C24.8772373,-0.318494296 21.3542712,-0.316917916 18.2910508,0.953118684 C16.7568136,1.58945063 15.3812542,2.51005639 14.2027288,3.68813751 C13.6589153,4.23198852 13.171322,4.82628367 12.7362712,5.45736102 C11.5924237,5.64652659 10.4753729,5.96285346 9.4040339,6.40686708 C7.54981356,7.17614039 5.88789831,8.28853901 4.46347458,9.71253537 C3.038,11.1375826 1.92567797,12.8001378 1.15698305,14.6544858 C0.389338983,16.506732 0,18.4693248 0,20.4891926 C0.000525423729,22.5090605 0.389338983,24.4711278 1.15645763,26.3223231 C1.92620339,28.1771966 3.03852542,29.8397517 4.46242373,31.2632226 L4.46242373,31.2632226 Z" id="vegetables" fill="#78BE20"></path>
    </g>
</svg>